<?xml version="1.0" encoding="iso-8859-1"?>
<!-- Generator: Adobe Illustrator 21.0.0, SVG Export Plug-In . SVG Version: 6.00 Build 0)  -->
<svg version="1.1" id="Capa_1" xmlns="http://www.w3.org/2000/svg" xmlns:xlink="http://www.w3.org/1999/xlink" x="0px" y="0px"
	 viewBox="0 0 327.84 65.9" style="enable-background:new 0 0 327.84 65.9;" xml:space="preserve">
<g>
	<path style="fill:#F0B90B;" d="M14.89,32.95l-7.45,7.44L0,32.95l7.44-7.44L14.89,32.95L14.89,32.95z M32.95,14.88L45.7,27.64
		l7.44-7.44L32.95,0L12.75,20.2l7.44,7.44L32.95,14.88L32.95,14.88z M58.46,25.51l-7.44,7.44l7.44,7.44l7.44-7.44L58.46,25.51
		L58.46,25.51z M32.95,51.02L20.2,38.27l-7.44,7.44l20.19,20.2l20.2-20.2l-7.44-7.44L32.95,51.02L32.95,51.02z M32.95,40.39
		l7.44-7.44l-7.44-7.44l-7.44,7.44L32.95,40.39L32.95,40.39z M111.49,41.1V41c0-4.85-2.58-7.28-6.77-8.88
		c2.58-1.45,4.75-3.72,4.75-7.8v-0.1c0-5.68-4.55-9.35-11.93-9.35l-16.76,0v36.14h17.19c8.16,0,13.53-3.3,13.53-9.91H111.49
		L111.49,41.1z M101.57,25.65c0,2.68-2.22,3.82-5.73,3.82h-7.32v-7.63h7.85c3.35,0,5.21,1.34,5.21,3.71L101.57,25.65L101.57,25.65z
		 M103.59,40.11c0,2.68-2.12,3.92-5.63,3.92h-9.43V36.1h9.19c4.08,0,5.89,1.5,5.89,3.93L103.59,40.11L103.59,40.11z M128.19,51.02
		V14.88h-7.98v36.14H128.19L128.19,51.02z M170.93,51.02V14.88h-7.87v22.26l-16.93-22.26h-7.33v36.14h7.85V28.04l17.5,22.98H170.93
		L170.93,51.02z M214.97,51.02l-15.51-36.4h-7.33l-15.48,36.4h8.11l3.32-8.1l15.28,0l3.3,8.11H214.97L214.97,51.02z M200.52,35.89
		h-9.63l4.8-11.72L200.52,35.89L200.52,35.89z M252.87,51.02V14.88H245v22.26l-16.94-22.26h-7.33v36.14h7.84V28.04l17.5,22.98
		H252.87L252.87,51.02z M293.91,45.19l-5.05-5.11c-2.84,2.58-5.37,4.23-9.5,4.23c-6.19,0-10.48-5.15-10.48-11.36v-0.1
		c0-6.19,4.39-11.25,10.48-11.25c3.61,0,6.44,1.55,9.24,4.08l5.04-5.83c-3.35-3.3-7.43-5.57-14.25-5.57
		c-11.1,0-18.84,8.41-18.84,18.67v0.1c0,10.38,7.9,18.59,18.53,18.59c6.96,0.02,11.09-2.46,14.8-6.43H293.91L293.91,45.19z
		 M327.84,51.02v-7.08h-19.65v-7.6h17.04v-7.08h-17.04v-7.3h19.36v-7.08h-27.26v36.14L327.84,51.02L327.84,51.02z"/>
</g>
</svg>
