<?xml version="1.0" encoding="iso-8859-1"?>
<!-- Generator: Adobe Illustrator 21.0.0, SVG Export Plug-In . SVG Version: 6.00 Build 0)  -->
<svg version="1.1" id="Capa_1" xmlns="http://www.w3.org/2000/svg" xmlns:xlink="http://www.w3.org/1999/xlink" x="0px" y="0px"
	 viewBox="0 0 292.2 73.82" style="enable-background:new 0 0 292.2 73.82;" xml:space="preserve">
<g>
	<path style="fill:#00BCFF;" d="M53.29,1.39c-28.88,0-52.31,15-52.31,33.46c0,18.46,23.43,34.92,52.31,34.92
		c28.88,0,52.31-16.41,52.31-34.92C105.6,16.34,82.17,1.39,53.29,1.39L53.29,1.39z"/>
	<path style="fill:#FFFFFF;" d="M36.24,24.53c-0.05,0.05-0.54,0.58-0.19,1.02c0.83,1.02,3.31,1.61,5.84,1.07
		c1.51-0.34,3.41-1.85,5.31-3.36c2.05-1.61,4.04-3.21,6.04-3.85c2.14-0.68,3.51-0.39,4.43-0.1c0.97,0.29,2.14,0.97,4.04,2.34
		c3.51,2.63,17.58,14.95,20.07,17.05c1.95-0.88,11.3-4.68,23.14-7.26c-1.02-6.33-4.82-12.32-10.67-17.05
		c-8.13,3.41-18.7,5.46-28.45,0.73c-0.05,0-5.31-2.48-10.47-2.39c-7.7,0.19-11.06,3.51-14.56,7.06L36.24,24.53L36.24,24.53
		L36.24,24.53z"/>
	<path style="fill:#FFFFFF;" d="M81.15,40.02C81,39.87,64.59,25.5,60.84,22.72c-2.14-1.61-3.36-2.05-4.63-2.19
		c-0.63-0.1-1.56,0.05-2.19,0.19c-1.75,0.49-3.99,2-5.99,3.56c-2.09,1.66-4.04,3.21-5.84,3.6c-2.34,0.54-5.16-0.1-6.48-0.97
		c-0.54-0.34-0.88-0.78-1.07-1.17c-0.49-1.12,0.39-2,0.54-2.14l4.53-4.92c0.54-0.54,1.07-1.07,1.61-1.56
		c-1.46,0.19-2.82,0.58-4.14,0.93c-1.66,0.44-3.21,0.88-4.82,0.88c-0.68,0-4.24-0.58-4.92-0.78c-4.09-1.12-8.77-2.19-14.13-4.72
		C6.87,18.19,2.68,24.09,1.41,30.71c0.93,0.24,3.36,0.78,3.99,0.93c14.56,3.26,19.09,6.58,19.92,7.26c0.88-0.97,2.19-1.61,3.6-1.61
		c1.61,0,3.07,0.83,3.95,2.05c0.83-0.68,2-1.22,3.46-1.22c0.68,0,1.36,0.15,2.09,0.34c1.66,0.58,2.48,1.66,2.92,2.63
		c0.54-0.24,1.22-0.44,2.05-0.44c0.78,0,1.61,0.19,2.44,0.54c2.68,1.17,3.12,3.8,2.87,5.8c0.19,0,0.39-0.05,0.58-0.05
		c3.17,0,5.8,2.58,5.8,5.8c0,0.97-0.24,1.9-0.68,2.73c0.88,0.49,3.07,1.61,5.02,1.36c1.56-0.2,2.14-0.73,2.34-1.02
		c0.15-0.19,0.29-0.44,0.15-0.63l-4.09-4.58c0,0-0.68-0.63-0.44-0.88c0.24-0.24,0.63,0.1,0.93,0.34c2.09,1.75,4.63,4.38,4.63,4.38
		c0.05,0.05,0.19,0.34,1.17,0.54c0.83,0.15,2.24,0.05,3.26-0.78c0.24-0.19,0.49-0.49,0.73-0.73l-0.05,0.05
		c1.07-1.36-0.1-2.73-0.1-2.73l-4.82-5.41c0,0-0.68-0.63-0.44-0.88c0.19-0.24,0.63,0.1,0.97,0.34c1.51,1.27,3.65,3.41,5.75,5.46
		c0.39,0.29,2.19,1.41,4.63-0.15c1.46-0.97,1.75-2.14,1.7-3.02c-0.1-1.17-1.02-2-1.02-2l-6.58-6.58c0,0-0.68-0.58-0.44-0.88
		c0.19-0.24,0.63,0.1,0.93,0.34c2.09,1.75,7.74,6.92,7.74,6.92c0.1,0.05,2.05,1.46,4.43-0.1c0.88-0.54,1.41-1.36,1.46-2.34
		C82.32,40.99,81.15,40.02,81.15,40.02L81.15,40.02L81.15,40.02z"/>
	<path style="fill:#FFFFFF;" d="M49.34,48.35c-1.02,0-2.14,0.58-2.29,0.49c-0.1-0.05,0.05-0.44,0.15-0.68
		c0.1-0.24,1.41-4.24-1.8-5.65c-2.48-1.07-4.04,0.15-4.53,0.68c-0.15,0.15-0.19,0.15-0.19-0.05c-0.05-0.73-0.39-2.68-2.53-3.36
		c-3.07-0.93-5.07,1.22-5.55,2c-0.24-1.75-1.7-3.12-3.51-3.12c-2,0-3.56,1.61-3.6,3.56c0,2,1.61,3.56,3.56,3.56
		c0.97,0,1.85-0.39,2.48-0.97c0,0,0.05,0.05,0,0.1c-0.15,0.88-0.44,4.09,2.92,5.41c1.36,0.54,2.48,0.15,3.46-0.54
		c0.29-0.19,0.34-0.1,0.29,0.15c-0.15,0.83,0.05,2.58,2.53,3.6c1.9,0.78,3.02,0,3.75-0.68c0.34-0.29,0.39-0.24,0.44,0.2
		c0.1,2.39,2.09,4.29,4.48,4.29c2.48,0,4.48-2,4.48-4.48C53.82,50.39,51.82,48.39,49.34,48.35L49.34,48.35L49.34,48.35z"/>
	<path style="fill:#303076;" d="M53.29,0.03C23.87,0.03,0,15.66,0,34.9c0,0.49,0,1.85,0,2.05c0,20.36,20.85,36.87,53.29,36.87
		s53.29-16.51,53.29-36.87V34.9C106.57,15.66,82.71,0.03,53.29,0.03L53.29,0.03L53.29,0.03z M104.14,31
		c-11.59,2.58-20.21,6.33-22.41,7.26c-5.07-4.43-16.76-14.56-19.92-16.95c-1.8-1.36-3.02-2.09-4.14-2.39
		c-0.49-0.15-1.17-0.29-2.05-0.29c-0.83,0-1.66,0.15-2.58,0.44C51,19.7,48.95,21.36,47,22.92v0.05c-1.85,1.46-3.75,2.97-5.16,3.31
		c-0.63,0.15-1.27,0.19-1.9,0.19c-1.61,0-3.07-0.49-3.6-1.17c-0.1-0.1-0.05-0.29,0.19-0.58l0.05-0.05l4.43-4.77
		c3.51-3.51,6.77-6.77,14.37-6.97c0.15,0,0.24,0,0.39,0c4.72,0,9.45,2.09,9.94,2.34c4.43,2.14,8.96,3.26,13.59,3.26
		c4.77,0,9.69-1.17,14.86-3.56C99.46,19.56,103.07,25.06,104.14,31L104.14,31L104.14,31z M53.29,2.07
		c15.64,0,29.61,4.48,39.01,11.54c-4.53,1.95-8.86,2.97-13.05,2.97c-4.29,0-8.57-1.02-12.71-3.07c-0.19-0.1-5.41-2.58-10.86-2.58
		c-0.15,0-0.29,0-0.44,0c-6.38,0.15-9.94,2.39-12.37,4.38c-2.34,0.05-4.38,0.63-6.19,1.12c-1.61,0.44-2.97,0.83-4.34,0.83
		c-0.54,0-1.56-0.05-1.66-0.05c-1.56-0.05-9.35-1.95-15.59-4.29C24.55,6.26,38.14,2.07,53.29,2.07L53.29,2.07L53.29,2.07z
		 M13.35,14.3c6.48,2.68,14.37,4.72,16.9,4.87c0.68,0.05,1.41,0.15,2.19,0.15c1.66,0,3.31-0.49,4.92-0.93
		c0.93-0.24,2-0.54,3.07-0.78c-0.29,0.29-0.58,0.58-0.88,0.88l-4.53,4.87c-0.34,0.34-1.12,1.31-0.63,2.48
		c0.19,0.49,0.63,0.93,1.17,1.32c1.07,0.73,3.02,1.22,4.77,1.22c0.68,0,1.31-0.05,1.9-0.19c1.9-0.44,3.9-2,5.99-3.7
		c1.66-1.31,4.04-3.02,5.89-3.51c0.54-0.15,1.12-0.24,1.66-0.24c0.15,0,0.29,0,0.44,0.05c1.22,0.15,2.39,0.58,4.43,2.14
		c3.7,2.78,20.12,17.15,20.26,17.29c0,0,1.07,0.93,0.97,2.44c-0.05,0.83-0.49,1.56-1.31,2.09c-0.68,0.44-1.41,0.68-2.14,0.68
		c-1.12,0-1.85-0.54-1.9-0.54c-0.05-0.05-5.7-5.21-7.74-6.96c-0.34-0.29-0.63-0.54-0.97-0.54c-0.19,0-0.34,0.1-0.44,0.2
		c-0.34,0.39,0.05,0.97,0.49,1.32l6.58,6.62c0,0,0.83,0.78,0.93,1.8c0.05,1.07-0.49,2-1.56,2.73c-0.78,0.54-1.56,0.78-2.34,0.78
		c-1.02,0-1.7-0.44-1.85-0.58l-0.93-0.93c-1.7-1.7-3.51-3.46-4.82-4.53c-0.34-0.24-0.63-0.49-0.97-0.49c-0.15,0-0.29,0.05-0.44,0.19
		c-0.15,0.15-0.24,0.44,0.1,0.97c0.15,0.19,0.34,0.39,0.34,0.39l4.77,5.41c0.05,0.05,0.97,1.17,0.1,2.29l-0.19,0.19
		c-0.15,0.15-0.29,0.29-0.44,0.44c-0.83,0.68-1.9,0.73-2.34,0.73c-0.24,0-0.44,0-0.63-0.05c-0.49-0.1-0.78-0.19-0.93-0.39
		l-0.05-0.05c-0.24-0.29-2.68-2.73-4.68-4.38c-0.24-0.24-0.58-0.49-0.93-0.49c-0.15,0-0.29,0.05-0.44,0.19
		c-0.39,0.44,0.19,1.07,0.44,1.32l4.09,4.53c0,0.05-0.05,0.15-0.15,0.29c-0.15,0.19-0.63,0.68-2.14,0.88
		c-0.19,0-0.34,0.05-0.54,0.05c-1.51,0-3.17-0.73-3.99-1.17c0.39-0.83,0.58-1.7,0.58-2.58c0-3.36-2.73-6.09-6.09-6.09
		c-0.05,0-0.15,0-0.19,0c0.1-1.56-0.1-4.43-3.12-5.75c-0.88-0.39-1.7-0.58-2.53-0.58c-0.63,0-1.27,0.1-1.85,0.34
		c-0.63-1.22-1.66-2.09-2.97-2.53c-0.73-0.24-1.46-0.39-2.19-0.39c-1.27,0-2.39,0.39-3.41,1.07c-0.97-1.22-2.44-1.95-3.99-1.95
		c-1.36,0-2.68,0.54-3.65,1.51c-1.27-0.97-6.33-4.19-19.82-7.26c-0.63-0.15-2.09-0.58-3.02-0.83C3.75,24.43,7.6,18.88,13.35,14.3
		L13.35,14.3L13.35,14.3z M38.38,49.51l-0.15-0.15h-0.15c-0.1,0-0.24,0.05-0.39,0.15c-0.68,0.49-1.36,0.73-2,0.73
		c-0.39,0-0.73-0.1-1.12-0.19c-3.12-1.22-2.87-4.19-2.73-5.07c0-0.19,0-0.34-0.15-0.44l-0.24-0.19l-0.19,0.19
		c-0.63,0.58-1.41,0.93-2.24,0.93c-1.8,0-3.26-1.46-3.26-3.26c0-1.8,1.46-3.26,3.26-3.26c1.61,0,3.02,1.22,3.21,2.83l0.1,0.88
		l0.49-0.73c0.05-0.1,1.36-2.09,3.8-2.09c0.44,0,0.93,0.1,1.41,0.24c1.95,0.58,2.24,2.34,2.29,3.07c0.05,0.44,0.34,0.44,0.39,0.44
		c0.15,0,0.29-0.1,0.39-0.19c0.34-0.39,1.17-1.02,2.39-1.02c0.58,0,1.17,0.15,1.8,0.39c3.07,1.31,1.66,5.21,1.66,5.26
		c-0.24,0.63-0.29,0.93-0.05,1.07l0.1,0.05h0.1c0.15,0,0.29-0.05,0.58-0.15c0.44-0.15,1.02-0.34,1.66-0.34l0,0
		c2.29,0.05,4.19,1.9,4.19,4.19c0,2.29-1.9,4.19-4.19,4.19c-2.24,0-4.09-1.75-4.19-3.99c0-0.19-0.05-0.68-0.44-0.68
		c-0.19,0-0.34,0.1-0.49,0.24c-0.49,0.44-1.12,0.93-2.05,0.93c-0.44,0-0.88-0.1-1.36-0.29c-2.39-0.97-2.44-2.58-2.34-3.26
		C38.48,49.81,38.53,49.66,38.38,49.51L38.38,49.51L38.38,49.51z M53.29,67.63c-28.3,0-51.24-14.66-51.24-32.78
		c0-0.73,0.05-1.46,0.15-2.19c0.24,0.05,2.48,0.58,2.92,0.68c13.78,3.07,18.36,6.23,19.14,6.87c-0.24,0.63-0.39,1.32-0.39,2
		c0,2.87,2.34,5.16,5.16,5.16c0.34,0,0.63-0.05,0.97-0.1c0.44,2.09,1.8,3.7,3.9,4.53c0.63,0.24,1.22,0.34,1.85,0.34
		c0.39,0,0.78-0.05,1.17-0.15c0.39,0.97,1.27,2.19,3.21,3.02c0.68,0.29,1.36,0.44,2.05,0.44c0.54,0,1.07-0.1,1.56-0.29
		c0.93,2.29,3.17,3.8,5.65,3.8c1.66,0,3.21-0.68,4.38-1.85c0.97,0.54,3.07,1.56,5.16,1.56c0.29,0,0.54,0,0.78-0.05
		c2.09-0.24,3.07-1.07,3.51-1.7c0.1-0.1,0.15-0.24,0.19-0.34c0.49,0.15,1.02,0.24,1.66,0.24c1.12,0,2.24-0.39,3.36-1.17
		c1.07-0.78,1.85-1.9,1.95-2.87v-0.05c0.39,0.1,0.73,0.1,1.12,0.1c1.17,0,2.34-0.34,3.41-1.07c2.14-1.41,2.48-3.21,2.48-4.38
		c0.39,0.1,0.73,0.1,1.12,0.1c1.12,0,2.19-0.34,3.21-0.97c1.31-0.83,2.09-2.14,2.24-3.65c0.1-1.02-0.19-2.05-0.73-2.92
		c3.56-1.51,11.69-4.48,21.24-6.67c0.05,0.54,0.05,1.07,0.05,1.66C104.53,52.97,81.59,67.63,53.29,67.63L53.29,67.63L53.29,67.63z"
		/>
	<path style="fill:#303076;" d="M289.28,10.74c-1.95-2.44-4.87-3.65-8.82-3.65c-3.95,0-6.87,1.22-8.82,3.65
		c-1.95,2.44-2.92,5.31-2.92,8.57c0,3.31,0.97,6.23,2.92,8.62c1.95,2.39,4.87,3.6,8.82,3.6c3.95,0,6.87-1.22,8.82-3.6
		c1.95-2.39,2.92-5.26,2.92-8.62C292.2,15.95,291.22,13.18,289.28,10.74L289.28,10.74z M284.5,24.67c-0.93,1.27-2.29,1.85-4.04,1.85
		c-1.75,0-3.12-0.63-4.04-1.85c-0.93-1.27-1.41-3.02-1.41-5.31s0.49-4.04,1.41-5.31c0.93-1.22,2.29-1.85,4.04-1.85
		c1.75,0,3.12,0.63,4.04,1.85s1.41,3.02,1.41,5.31S285.43,23.41,284.5,24.67L284.5,24.67L284.5,24.67z M239.84,8.7
		c-1.95-0.97-4.19-1.51-6.72-1.51c-3.9,0-6.62,1.02-8.23,3.02c-1.02,1.31-1.56,2.97-1.7,4.97h5.8c0.15-0.88,0.44-1.61,0.88-2.09
		c0.58-0.68,1.61-1.07,3.07-1.07c1.27,0,2.24,0.19,2.92,0.54c0.68,0.34,0.97,1.02,0.97,1.95c0,0.78-0.44,1.36-1.32,1.7
		c-0.49,0.2-1.27,0.39-2.39,0.54l-2.05,0.24c-2.34,0.29-4.09,0.78-5.31,1.46c-2.19,1.27-3.31,3.31-3.31,6.14
		c0,2.19,0.68,3.85,2.05,5.07c1.36,1.17,3.12,1.7,5.21,1.8c13.15,0.58,13-6.92,13.1-8.48v-8.62C242.76,11.62,241.79,9.72,239.84,8.7
		L239.84,8.7L239.84,8.7z M236.77,21.8c-0.05,2-0.63,3.41-1.7,4.14c-1.12,0.78-2.34,1.12-3.65,1.12c-0.83,0-1.56-0.24-2.09-0.68
		c-0.58-0.44-0.88-1.22-0.88-2.24c0-1.17,0.49-2,1.41-2.53c0.58-0.34,1.46-0.58,2.78-0.83l1.36-0.24c0.68-0.15,1.22-0.29,1.61-0.44
		c0.39-0.15,0.78-0.34,1.17-0.58V21.8L236.77,21.8L236.77,21.8z M209.88,12.35c1.51,0,2.58,0.49,3.31,1.41
		c0.49,0.68,0.78,1.46,0.93,2.34h6.48c-0.34-3.26-1.51-5.55-3.41-6.82c-1.95-1.27-4.43-1.95-7.45-1.95c-3.56,0-6.38,1.07-8.38,3.26
		c-2.05,2.19-3.02,5.26-3.02,9.21c0,3.46,0.93,6.33,2.78,8.52c1.85,2.19,4.68,3.26,8.57,3.26c3.9,0,6.82-1.32,8.82-3.95
		c1.27-1.61,1.95-3.36,2.09-5.16l-6.53,0c-0.15,1.22-0.49,2.19-1.12,2.97c-0.63,0.73-1.66,1.12-3.17,1.12
		c-2.09,0-3.51-0.97-4.29-2.87c-0.44-1.02-0.63-2.39-0.63-4.04c0-1.66,0.19-3.17,0.63-4.24C206.28,13.37,207.74,12.35,209.88,12.35
		L209.88,12.35L209.88,12.35z M196.54,7.28c-13.3,0-12.52,11.79-12.52,11.79v11.98l6.04,0v-11.2c0-1.85,0.24-3.21,0.68-4.09
		c0.83-1.56,2.44-2.34,4.87-2.34c0.19,0,0.44,0,0.73,0.05c0.29,0,0.63,0.05,1.02,0.1V7.43c-0.24,0-0.44-0.05-0.54-0.05
		C196.73,7.28,196.63,7.28,196.54,7.28L196.54,7.28L196.54,7.28z M179.2,11.77c-1.02-1.56-2.39-2.68-3.95-3.41
		c-1.61-0.73-3.41-1.07-5.41-1.07c-3.36,0-6.09,1.07-8.18,3.17c-2.09,2.14-3.17,5.16-3.17,9.16c0,4.24,1.17,7.31,3.51,9.21
		c2.34,1.9,5.02,2.82,8.09,2.82c3.7,0,6.58-1.12,8.62-3.36c1.12-1.17,1.8-2.34,2.09-3.46h-6.43c-0.24,0.34-0.54,0.68-0.83,0.93
		c-0.88,0.68-2,0.93-3.36,0.93c-1.27,0-2.29-0.19-3.21-0.78c-1.51-0.93-2.34-2.48-2.44-4.77l16.71,0c0-2-0.05-3.51-0.19-4.58
		C180.75,14.69,180.12,13.13,179.2,11.77L179.2,11.77L179.2,11.77z M164.63,17.07c0.19-1.51,0.73-2.68,1.61-3.56
		c0.83-0.88,2.05-1.32,3.6-1.32c1.41,0,2.58,0.39,3.56,1.22c0.97,0.83,1.46,2.05,1.61,3.6h-10.37V17.07L164.63,17.07z M146.46,7.19
		c-2.83,0-5.21,1.22-6.87,3.21c-1.56-1.95-3.95-3.21-6.87-3.21c-5.89,0-9.69,4.33-9.69,10.08V31h5.5V17.12
		c0-2.53,1.7-4.29,4.19-4.29c3.65,0,3.99,3.02,3.99,4.29V31h5.5V17.12c0-2.53,1.75-4.29,4.19-4.29c3.65,0,4.04,3.02,4.04,4.29V31
		h5.5V17.27C156.06,11.38,152.5,7.19,146.46,7.19L146.46,7.19L146.46,7.19z M260.88,4.26v6.48c-0.68-1.07-1.56-1.95-2.63-2.53
		c-1.07-0.58-2.29-0.93-3.7-0.93c-3.02,0-5.41,1.12-7.21,3.36c-1.8,2.24-2.73,5.5-2.73,9.4c0,3.41,0.93,6.19,2.73,8.33
		c1.85,2.14,5.41,3.12,8.62,3.12c11.11,0,11.01-9.55,11.01-9.55V0.03C266.97,0.03,260.88-0.61,260.88,4.26L260.88,4.26L260.88,4.26z
		 M259.71,24.72c-0.88,1.27-2.19,1.9-3.85,1.9c-1.66,0-2.97-0.63-3.8-1.9c-0.83-1.27-1.27-3.12-1.27-5.26c0-1.95,0.39-3.6,1.22-4.92
		c0.83-1.32,2.09-2,3.85-2c1.17,0,2.14,0.34,3.02,1.07c1.41,1.22,2.14,3.36,2.14,6.19C261.07,21.8,260.59,23.46,259.71,24.72
		L259.71,24.72L259.71,24.72z M135.8,40.26c-4.97-0.24-7.5,0.97-9.11,2.19c-2.24,1.7-3.65,4.29-3.65,8.38v20.99l2.92,0
		c0.78,0,1.56-0.29,2.14-0.78c0.63-0.58,0.97-1.31,0.97-2.19v-7.89c0.73,1.22,1.66,2.14,2.83,2.73c1.12,0.54,2.44,0.78,3.9,0.78
		c2.78,0,5.07-1.12,6.82-3.31c1.75-2.29,2.68-5.26,2.68-8.91c0-3.7-0.83-6.28-2.87-8.77C140.86,41.48,138.38,40.36,135.8,40.26
		L135.8,40.26L135.8,40.26z M137.89,57.45c-0.88,1.22-2.09,1.85-3.65,1.85c-1.66,0-2.92-0.58-3.8-1.85
		c-0.88-1.12-1.32-2.78-1.32-4.97c0-2.39,0.39-4.14,1.22-5.26c0.88-1.22,2.14-1.85,3.75-1.85c1.61,0,2.92,0.63,3.8,1.85
		c0.88,1.22,1.31,2.97,1.31,5.26C139.21,54.58,138.77,56.24,137.89,57.45L137.89,57.45z M187.67,42.4
		c-2.05-1.56-4.14-2.39-7.74-2.29c-3.65,0.1-6.33,1.12-7.99,3.36c-1.66,2.24-2.48,5.16-2.48,8.77c0,3.07,0.63,5.6,1.85,7.5
		c1.27,1.9,2.73,3.21,4.48,3.9c1.75,0.68,3.51,0.83,5.26,0.44c1.75-0.39,3.17-1.41,4.24-3.07v1.46c-0.1,1.85-0.58,3.26-1.36,4.19
		c-0.78,0.93-1.66,1.51-2.63,1.7c-0.97,0.19-1.9,0.1-2.87-0.34c-0.97-0.44-1.66-1.07-2.14-1.9h-6.38c1.66,4.97,4.63,7.16,9.94,7.5
		c8.57,0.63,11.35-6.67,11.35-10.57V50.73C191.28,46.74,189.91,44.11,187.67,42.4L187.67,42.4L187.67,42.4z M185.14,54.53
		c-0.24,1.36-0.58,2.39-1.12,3.02c-1.12,1.51-2.83,2.05-5.11,1.61c-2.34-0.44-3.51-2.68-3.51-6.67c0-1.85,0.34-3.51,1.02-4.97
		c0.68-1.46,2.05-2.19,3.99-2.19c1.46,0,2.58,0.54,3.31,1.56c0.78,1.07,1.22,2.24,1.46,3.6C185.38,51.8,185.38,53.17,185.14,54.53
		L185.14,54.53L185.14,54.53z M164.29,41.82c-1.95-0.97-4.19-1.51-6.72-1.51c-3.9,0-6.62,1.02-8.23,3.02
		c-1.02,1.32-1.56,2.97-1.7,4.97h5.8c0.15-0.88,0.44-1.61,0.88-2.09c0.58-0.68,1.61-1.07,3.07-1.07c1.27,0,2.24,0.19,2.92,0.54
		c0.68,0.34,0.97,1.02,0.97,1.95c0,0.78-0.44,1.36-1.32,1.7c-0.49,0.19-1.27,0.39-2.39,0.54l-2.05,0.24
		c-2.34,0.29-4.14,0.78-5.31,1.46c-2.19,1.27-3.31,3.31-3.31,6.14c0,2.19,0.68,3.85,2.05,5.07c1.36,1.17,3.12,1.7,5.21,1.8
		c13.1,0.58,12.96-6.92,13.1-8.48v-8.62C167.26,44.69,166.29,42.79,164.29,41.82L164.29,41.82L164.29,41.82z M161.22,54.92
		c-0.05,2-0.63,3.41-1.7,4.14c-1.12,0.78-2.34,1.12-3.65,1.12c-0.83,0-1.51-0.24-2.09-0.68c-0.58-0.44-0.88-1.22-0.88-2.24
		c0-1.17,0.49-2,1.41-2.53c0.58-0.34,1.46-0.58,2.78-0.83l1.36-0.24c0.68-0.15,1.22-0.24,1.61-0.44c0.39-0.15,0.78-0.34,1.17-0.58
		L161.22,54.92L161.22,54.92L161.22,54.92z M214.07,43.72c-1.95-2.44-4.87-3.65-8.82-3.65c-3.95,0-6.87,1.22-8.82,3.65
		c-1.95,2.44-2.92,5.31-2.92,8.57c0,3.26,0.97,6.23,2.92,8.62c1.95,2.39,4.87,3.56,8.82,3.56c3.95,0,6.87-1.22,8.82-3.56
		c1.95-2.39,2.92-5.26,2.92-8.62C216.99,48.93,216.02,46.15,214.07,43.72L214.07,43.72z M209.3,57.6c-0.93,1.27-2.29,1.85-4.04,1.85
		c-1.75,0-3.12-0.63-4.04-1.85c-0.97-1.27-1.41-3.02-1.41-5.31c0-2.29,0.49-4.04,1.41-5.31c0.93-1.22,2.29-1.85,4.04-1.85
		c1.75,0,3.12,0.63,4.04,1.85c0.93,1.22,1.41,3.02,1.41,5.31C210.71,54.63,210.22,56.38,209.3,57.6L209.3,57.6z"/>
</g>
</svg>
