<?xml version="1.0" encoding="iso-8859-1"?>
<!-- Generator: Adobe Illustrator 21.0.0, SVG Export Plug-In . SVG Version: 6.00 Build 0)  -->
<svg version="1.1" id="Capa_1" xmlns="http://www.w3.org/2000/svg" xmlns:xlink="http://www.w3.org/1999/xlink" x="0px" y="0px"
	 viewBox="0 0 693 170" style="enable-background:new 0 0 693 170;" xml:space="preserve">
<g>
	<path style="fill:#253B80;" d="M258.87,37.81h-38.31c-2.62,0-4.85,1.9-5.26,4.49l-15.49,98.24c-0.3,1.94,1.2,3.69,3.16,3.69h18.29
		c2.62,0,4.86-1.91,5.26-4.5l4.18-26.5c0.41-2.59,2.64-4.5,5.25-4.5h12.13c25.24,0,39.8-12.21,43.61-36.41
		c1.71-10.59,0.07-18.91-4.89-24.73C281.35,41.19,271.69,37.81,258.87,37.81L258.87,37.81z M263.29,73.69
		c-2.09,13.75-12.6,13.75-22.75,13.75h-5.78l4.06-25.67c0.25-1.55,1.58-2.7,3.16-2.7h2.65c6.92,0,13.45,0,16.82,3.94
		C263.44,65.36,264.06,68.86,263.29,73.69L263.29,73.69z M373.38,73.24h-18.34c-1.57,0-2.91,1.15-3.16,2.7l-0.81,5.13l-1.28-1.86
		c-3.97-5.77-12.83-7.69-21.67-7.69c-20.27,0-37.59,15.36-40.96,36.89c-1.75,10.74,0.74,21.02,6.84,28.18
		c5.59,6.59,13.59,9.34,23.11,9.34c16.34,0,25.39-10.5,25.39-10.5l-0.82,5.1c-0.31,1.94,1.18,3.69,3.14,3.7h16.53
		c2.62,0,4.86-1.91,5.26-4.5l9.91-62.79C376.84,75,375.35,73.24,373.38,73.24L373.38,73.24z M347.81,108.95
		c-1.77,10.48-10.09,17.52-20.7,17.52c-5.33,0-9.59-1.71-12.32-4.95c-2.71-3.22-3.74-7.79-2.88-12.89
		c1.65-10.39,10.11-17.66,20.56-17.66c5.21,0,9.45,1.73,12.23,5C347.51,99.27,348.61,103.87,347.81,108.95L347.81,108.95z
		 M471.09,73.24h-18.43c-1.77,0-3.41,0.88-4.41,2.34l-25.43,37.46l-10.78-35.99c-0.68-2.25-2.75-3.8-5.11-3.8h-18.12
		c-2.19,0-3.74,2.15-3.03,4.23l20.31,59.59l-19.09,26.95c-1.5,2.11,0.01,5.04,2.6,5.04h18.42c1.75,0,3.38-0.85,4.38-2.28
		l61.32-88.51C475.19,76.14,473.67,73.25,471.09,73.24L471.09,73.24z M471.09,73.24"/>
	<path style="fill:#179BD7;" d="M532.13,37.81h-38.32c-2.62,0-4.85,1.91-5.25,4.49l-15.5,98.24c-0.3,1.93,1.19,3.69,3.15,3.69h19.66
		c1.83,0,3.39-1.34,3.67-3.15l4.4-27.85c0.41-2.59,2.64-4.5,5.25-4.5h12.12c25.24,0,39.8-12.21,43.61-36.41
		c1.72-10.59,0.07-18.91-4.89-24.73C554.6,41.19,544.95,37.81,532.13,37.81L532.13,37.81z M536.55,73.69
		c-2.09,13.75-12.59,13.75-22.75,13.75h-5.77l4.06-25.67c0.24-1.55,1.58-2.7,3.15-2.7h2.65c6.91,0,13.44,0,16.82,3.94
		C536.71,65.36,537.32,68.86,536.55,73.69L536.55,73.69z M646.64,73.24h-18.33c-1.58,0-2.91,1.15-3.15,2.7l-0.81,5.13l-1.29-1.86
		c-3.97-5.77-12.83-7.69-21.66-7.69c-20.27,0-37.58,15.36-40.95,36.89c-1.75,10.74,0.74,21.02,6.83,28.18
		c5.6,6.59,13.59,9.34,23.1,9.34c16.34,0,25.4-10.5,25.4-10.5l-0.82,5.1c-0.31,1.94,1.19,3.7,3.16,3.7h16.52
		c2.62,0,4.85-1.91,5.25-4.5l9.92-62.79C650.11,74.99,648.61,73.24,646.64,73.24L646.64,73.24z M621.07,108.95
		c-1.76,10.48-10.09,17.52-20.7,17.52c-5.32,0-9.59-1.71-12.32-4.95c-2.71-3.22-3.73-7.79-2.88-12.89
		c1.66-10.39,10.11-17.66,20.56-17.66c5.21,0,9.45,1.73,12.24,5C620.77,99.27,621.88,103.87,621.07,108.95L621.07,108.95z
		 M668.27,40.5l-15.72,100.04c-0.31,1.93,1.19,3.69,3.15,3.69h15.81c2.63,0,4.85-1.91,5.26-4.5l15.51-98.23
		c0.3-1.93-1.19-3.69-3.15-3.69h-17.7C669.85,37.81,668.52,38.95,668.27,40.5L668.27,40.5z M668.27,40.5"/>
	<path style="fill:#253B80;" d="M40.7,163.32l2.93-18.61l-6.53-0.15H5.94L27.6,7.24c0.13-0.87,0.88-1.51,1.76-1.5H81.9
		c17.45,0,29.49,3.63,35.77,10.8c2.95,3.36,4.82,6.88,5.73,10.74c0.95,4.05,0.97,8.9,0.04,14.81l-0.07,0.43v3.79l2.94,1.67
		c2.25,1.14,4.27,2.68,5.97,4.55c2.52,2.88,4.15,6.53,4.84,10.86c0.71,4.45,0.48,9.75-0.69,15.75c-1.34,6.9-3.52,12.91-6.45,17.83
		c-2.59,4.41-6.07,8.22-10.22,11.2c-3.9,2.77-8.53,4.87-13.77,6.21c-5.07,1.32-10.86,1.99-17.21,1.99H84.7c-2.93,0-5.76,1.05-8,2.94
		c-2.23,1.91-3.7,4.55-4.17,7.44l-0.31,1.68l-5.18,32.8l-0.24,1.2c-0.06,0.38-0.17,0.57-0.32,0.7c-0.15,0.12-0.34,0.19-0.54,0.19
		H40.7z M40.7,163.32"/>
	<path style="fill:#179BD7;" d="M129.11,42.95c-0.16,1-0.34,2.03-0.53,3.08C121.65,81.61,97.94,93.9,67.66,93.9H52.24
		c-3.7,0-6.82,2.69-7.4,6.34l-7.9,50.06l-2.23,14.19c-0.38,2.39,1.47,4.56,3.89,4.56h27.34c3.24,0,5.99-2.35,6.5-5.55l0.27-1.39
		l5.14-32.67l0.33-1.79c0.5-3.2,3.26-5.55,6.5-5.55h4.09c26.49,0,47.23-10.76,53.29-41.88c2.53-13,1.22-23.86-5.48-31.49
		C134.47,46.35,131.94,44.4,129.11,42.95L129.11,42.95z M129.11,42.95"/>
	<g>
		<defs>
			<rect id="SVGID_1_" x="0" width="693" height="170"/>
		</defs>
		<clipPath id="SVGID_2_">
			<use xlink:href="#SVGID_1_"  style="overflow:visible;"/>
		</clipPath>
		<path style="clip-path:url(#SVGID_2_);fill:#222D65;" d="M121.86,40.06c-2.21-0.64-4.46-1.14-6.74-1.5
			c-4.5-0.69-9.04-1.02-13.59-0.99H60.35c-3.24,0-6,2.36-6.49,5.56L45.1,98.62l-0.25,1.62c0.56-3.65,3.7-6.34,7.4-6.34h15.42
			c30.28,0,53.99-12.3,60.91-47.87c0.21-1.05,0.38-2.08,0.53-3.08c-1.83-0.96-3.73-1.76-5.69-2.4
			C122.9,40.38,122.38,40.21,121.86,40.06L121.86,40.06z M121.86,40.06"/>
		<path style="clip-path:url(#SVGID_2_);fill:#253B80;" d="M53.86,43.13c0.49-3.2,3.25-5.56,6.49-5.55h41.18
			c4.88,0,9.43,0.32,13.59,0.99c2.81,0.44,5.59,1.1,8.3,1.98c2.05,0.68,3.94,1.48,5.7,2.4c2.06-13.15-0.02-22.1-7.13-30.2
			C114.15,3.82,100.01,0,81.91,0H29.36c-3.7,0-6.85,2.69-7.42,6.35L0.06,145.08c-0.43,2.74,1.68,5.21,4.45,5.22h32.44l8.14-51.68
			L53.86,43.13z M53.86,43.13"/>
	</g>
</g>
</svg>
